<?xml version="1.0" encoding="utf-8"?>
<!-- Generator: Adobe Illustrator 24.0.2, SVG Export Plug-In . SVG Version: 6.00 Build 0)  -->
<svg version="1.1" id="Capa_1" xmlns="http://www.w3.org/2000/svg" xmlns:xlink="http://www.w3.org/1999/xlink" x="0px" y="0px"
	 viewBox="0 0 1366 768" style="enable-background:new 0 0 1366 768;" xml:space="preserve">
<style type="text/css">
	.st0{fill:url(#SVGID_1_);}
	.st1{font-family:'ArtemayBright';}
	.st2{font-size:156.9214px;}
	.st3{font-size:154.677px;}
	.st4{font-family:'BernardMT-Condensed';}
	.st5{font-size:72px;}
</style>
<linearGradient id="SVGID_1_" gradientUnits="userSpaceOnUse" x1="691" y1="669" x2="691" y2="82">
	<stop  offset="0.852" style="stop-color:#C1272D"/>
	<stop  offset="1" style="stop-color:#F6E1E2;stop-opacity:0.0866"/>
</linearGradient>
<path class="st0" d="M733.79,82.83C1009.18,93.72,1226,211.42,1226,355c0,150.77-239.08,273-534,273S158,505.77,158,355
	c0-150.69,238.81-272.86,533.5-273c-0.17,0-0.33,0-0.5,0c-313.15,0-567,131.4-567,293.5S377.85,669,691,669s567-131.4,567-293.5
	C1258,220.86,1026.95,94.15,733.79,82.83z"/>
<text transform="matrix(0.7934 -0.6287 0.6825 0.7309 520.4196 413.0519)" class="st1 st2">Calzado</text>
<text transform="matrix(0.9171 -0.4929 0.5351 0.8448 669.0964 473.6958)" class="st1 st3">Chuchin</text>
<g>
	<g>
		<path d="M503.63,342.89c1.39,0.63,0.27,3.41-0.06,4.52c-0.72,2.44-1.66,4.8-2.81,7.07c-2.31,4.58-5.28,8.8-8.54,12.75
			c-6.78,8.18-14.55,15.62-22.4,22.75c-15.93,14.47-33.32,27.29-51.79,38.35c-5.21,3.12-10.51,6.11-15.89,8.94
			c-2.7,1.42-5.41,2.81-8.14,4.16c-1.37,0.68-2.74,1.34-4.12,2c-0.66,0.31-1.31,0.62-1.97,0.93c-0.33,0.15-0.66,0.31-0.99,0.46
			c-0.2,0.09-0.4,0.18-0.59,0.28c-0.23,0.09-0.26,0.07-0.08-0.04c0.33,0.19,0.66,0.39,0.99,0.58c-0.06-0.06-0.11-0.12-0.17-0.18
			c0.19,0.33,0.39,0.66,0.58,0.99c-0.02-0.08-0.04-0.15-0.06-0.23c0,0.4,0,0.8,0,1.2c-0.09,0.13-0.18,0.25-0.28,0.38
			c-0.33,0.19-0.66,0.39-0.99,0.58c0.07-0.02,0.13-0.04,0.2-0.06c-0.4,0-0.8,0-1.2,0c0.07,0.03,0.14,0.05,0.21,0.08
			c1.14,0.42,2.46-0.47,2.77-1.57c0.34-1.25-0.43-2.35-1.57-2.77c-1.48-0.54-3.02,0.48-3.44,1.92c-0.54,1.83,0.87,3.52,2.69,3.64
			c1.51,0.1,2.88-0.75,4.2-1.37c1.45-0.68,2.89-1.37,4.33-2.07c5.35-2.6,10.63-5.35,15.83-8.23c10.47-5.8,20.63-12.15,30.42-19.03
			c9.8-6.89,19.25-14.3,28.25-22.21c8.83-7.75,17.48-15.92,25.14-24.84c4.26-4.96,8.22-10.3,11.03-16.23
			c1.36-2.88,2.55-5.91,3.25-9.02c0.61-2.74,0.4-6.29-2.54-7.62c-1.11-0.5-2.42-0.32-3.08,0.81
			C502.26,340.78,502.52,342.39,503.63,342.89L503.63,342.89z"/>
	</g>
</g>
<g>
	<g>
		<path d="M386.5,444.36c-21.75,11.54-42.54,24.86-62.07,39.87c-1.03,0.79-1.69,2.5-0.46,3.53c8.61,7.15,19.65,9.67,30.55,10.76
			c13.03,1.31,26.26,1.13,39.33,0.54c27.26-1.23,54.43-4.6,81.57-7.36c27.22-2.76,54.45-5.52,81.67-8.29
			c12.37-1.26,24.88-2.17,37.06-4.8c11.71-2.53,22.57-7.05,31.98-14.54c4.65-3.7,8.88-7.91,12.99-12.2
			c4.31-4.5,8.6-9.03,12.71-13.72c8.1-9.25,15.06-19.26,19.54-30.78c1.11-2.86,2.05-5.77,2.85-8.73c0.75-2.8-3.59-3.99-4.34-1.2
			c-3.15,11.68-8.86,22.29-16.38,31.74c-3.8,4.78-7.93,9.29-12.11,13.74c-3.98,4.24-7.95,8.5-12.17,12.49
			c-4.2,3.97-8.69,7.64-13.69,10.57c-4.97,2.92-10.34,5.04-15.87,6.62c-11.42,3.27-23.3,4.35-35.07,5.54
			c-26.52,2.69-53.03,5.38-79.55,8.07c-26.38,2.68-52.77,5.81-79.22,7.64c-13.21,0.92-26.47,1.38-39.71,0.88
			c-10.88-0.41-22.52-1.07-32.45-6c-2.32-1.15-4.52-2.52-6.51-4.18c-0.15,1.18-0.3,2.36-0.46,3.53
			c19.53-15.01,40.31-28.33,62.07-39.87C391.33,446.89,389.06,443,386.5,444.36L386.5,444.36z"/>
	</g>
</g>
<g>
	<g>
		<path d="M728.52,169.46c-0.66,0.61-1.31,1.21-1.97,1.82c-0.37,0.34-0.62,0.74-0.78,1.21c-0.23,0.45-0.34,0.93-0.32,1.44
			c-0.02,0.52,0.09,1,0.32,1.44c0.15,0.46,0.41,0.87,0.78,1.21c0.25,0.2,0.51,0.39,0.76,0.59c0.58,0.34,1.22,0.51,1.89,0.51
			c0.33-0.04,0.66-0.09,1-0.13c0.64-0.18,1.19-0.5,1.65-0.96c0.66-0.61,1.31-1.21,1.97-1.82c0.37-0.34,0.62-0.74,0.78-1.21
			c0.23-0.45,0.34-0.93,0.32-1.44c0.02-0.52-0.09-1-0.32-1.44c-0.15-0.46-0.41-0.87-0.78-1.21c-0.25-0.2-0.51-0.39-0.76-0.59
			c-0.58-0.34-1.22-0.51-1.89-0.51c-0.33,0.04-0.66,0.09-1,0.13C729.54,168.68,728.99,169,728.52,169.46L728.52,169.46z"/>
	</g>
</g>
<g>
	<g>
		<path d="M743.74,144.8c2.64,4.71,5.97,8.97,9.35,13.17c3.62,4.49,7.25,8.98,10.87,13.46c7.25,8.98,14.5,17.95,21.75,26.93
			c4.12,5.1,8.24,10.2,12.36,15.3c0.78,0.97,2.37,0.76,3.18,0c0.95-0.89,1.9-1.79,2.85-2.68c2.11-1.99-1.07-5.17-3.18-3.18
			c-0.95,0.89-1.9,1.79-2.85,2.68c1.06,0,2.12,0,3.18,0c-14.39-17.82-28.79-35.65-43.18-53.47c-3.75-4.64-7.52-9.26-10.44-14.48
			C746.21,140,742.32,142.27,743.74,144.8L743.74,144.8z"/>
	</g>
</g>
<g>
	<g>
		<path d="M812.13,209.65c8.19-13.8,16.94-27.26,26.22-40.35c0.7-0.99,0.18-2.5-0.81-3.08c-1.13-0.66-2.37-0.19-3.08,0.81
			c-9.28,13.09-18.03,26.55-26.22,40.35C806.76,209.88,810.65,212.14,812.13,209.65L812.13,209.65z"/>
	</g>
</g>
<g>
	<g>
		<path d="M837.59,170.13c28.57,0,57.14,0,85.71,0s57.14,0,85.71,0c15.99,0,31.99,0,47.98,0c2.9,0,2.9-4.5,0-4.5
			c-28.57,0-57.14,0-85.71,0s-57.14,0-85.71,0c-15.99,0-31.99,0-47.98,0C834.69,165.63,834.69,170.13,837.59,170.13L837.59,170.13z"
			/>
	</g>
</g>
<g>
	<g>
		<path d="M1054.09,169.09c0,35.39,0,70.78,0,106.17c0,35.21,0,70.42,0,105.63c0,19.86,0,39.72,0,59.59c0,2.9,4.5,2.9,4.5,0
			c0-35.39,0-70.78,0-106.17c0-35.21,0-70.42,0-105.63c0-19.86,0-39.72,0-59.59C1058.59,166.19,1054.09,166.19,1054.09,169.09
			L1054.09,169.09z"/>
	</g>
</g>
<g>
	<g>
		<path d="M1054.53,439.6c-6.02,7.97-12.03,15.93-18.05,23.9c-2.65,3.51-5.38,6.98-7.07,11.08c-0.77,1.87-1.89,4.6,0.18,6.05
			c2.24,1.58,4.99-1.11,3.64-3.44c-0.39-0.66-1.16-1.15-1.94-1.11c-0.05,0-0.1,0-0.15,0.01c-2.88,0.12-2.9,4.63,0,4.5
			c0.05,0,0.1,0,0.15-0.01c-0.65-0.37-1.3-0.74-1.94-1.11c0.02,0.04,0.04,0.07,0.06,0.11c-0.1-0.38-0.2-0.76-0.31-1.14
			c0,0.06-0.01,0.11-0.01,0.17c0.1-0.38,0.2-0.76,0.31-1.14c0.05-0.06,0.1-0.12,0.15-0.18c0.53-0.22,1.06-0.44,1.59-0.66
			c-0.06,0-0.12-0.01-0.17-0.01c0.53,0.22,1.06,0.44,1.59,0.66c-0.07-0.06-0.15-0.13-0.22-0.19c0.19,0.33,0.39,0.66,0.58,0.99
			c-0.07,0.42-0.05,0.38,0.07-0.12c0.04-0.13,0.08-0.27,0.12-0.4c0.12-0.4,0.26-0.8,0.42-1.19c0.29-0.73,0.64-1.44,1.01-2.14
			c0.81-1.5,1.76-2.93,2.75-4.32c2.2-3.08,4.54-6.06,6.81-9.07c4.77-6.32,9.54-12.64,14.32-18.96c0.73-0.97,0.15-2.52-0.81-3.08
			C1056.46,438.12,1055.27,438.63,1054.53,439.6L1054.53,439.6z"/>
	</g>
</g>
<g>
	<g>
		<path d="M893.15,344.06c0,17.57,0,35.13,0,52.7c0,17.48,0,34.96,0,52.45c0,9.91,0,19.81,0,29.72c0,2.9,4.5,2.9,4.5,0
			c0-0.89,0-1.79,0-2.68c0-2.9-4.5-2.9-4.5,0c0,0.89,0,1.79,0,2.68c0,2.9,4.5,2.9,4.5,0c0-17.57,0-35.13,0-52.7
			c0-17.48,0-34.96,0-52.45c0-9.91,0-19.81,0-29.72C897.65,341.16,893.15,341.16,893.15,344.06L893.15,344.06z"/>
	</g>
</g>
<g>
	<g>
		<path d="M898.03,483.6c17.21,0,34.42,0,51.63,0c17.29,0,34.59,0,51.88,0c9.73,0,19.46,0,29.18,0c2.9,0,2.9-4.5,0-4.5
			c-17.21,0-34.42,0-51.63,0c-17.29,0-34.59,0-51.88,0c-9.73,0-19.46,0-29.18,0C895.13,479.1,895.13,483.6,898.03,483.6
			L898.03,483.6z"/>
	</g>
</g>
<g>
	<g>
		<path d="M830.36,182.84c28.8,0,57.59,0,86.39,0c28.63,0,57.26,0,85.89,0c16.15,0,32.29,0,48.44,0c2.9,0,2.9-4.5,0-4.5
			c-28.8,0-57.59,0-86.39,0c-28.63,0-57.26,0-85.89,0c-16.15,0-32.29,0-48.44,0C827.47,178.34,827.46,182.84,830.36,182.84
			L830.36,182.84z"/>
	</g>
</g>
<g>
	<g>
		<path d="M732.37,172c5.27-9.59,9.58-19.69,12.82-30.14c0.86-2.77-3.48-3.96-4.34-1.2c-3.13,10.09-7.27,19.81-12.36,29.07
			C727.09,172.27,730.97,174.54,732.37,172L732.37,172z"/>
	</g>
</g>
<text transform="matrix(1 0 0 1 534 597)" class="st4 st5">Desde 1987</text>
</svg>
