<svg id="Capa_1" data-name="Capa 1" xmlns="http://www.w3.org/2000/svg" xmlns:xlink="http://www.w3.org/1999/xlink" viewBox="0 0 1366 768"><defs><style>.cls-1{fill:url(#Degradado_sin_nombre_43);}.cls-2{font-size:156.92px;}.cls-2,.cls-3{font-family:ArtemayBright, Artemay Bright;}.cls-3{font-size:154.68px;}.cls-4{font-size:72px;font-family:BernardMT-Condensed, Bernard MT Condensed;}</style><linearGradient id="Degradado_sin_nombre_43" x1="691" y1="669" x2="691" y2="82" gradientUnits="userSpaceOnUse"><stop offset="0.85" stop-color="#c1272d"/><stop offset="1" stop-color="#f6e1e2" stop-opacity="0.09"/></linearGradient></defs><title>Mesa de trabajo 1</title><path class="cls-1" d="M733.79,82.83C1009.18,93.72,1226,211.42,1226,355c0,150.77-239.08,273-534,273S158,505.77,158,355,396.81,82.14,691.5,82H691C377.85,82,124,213.4,124,375.5S377.85,669,691,669s567-131.4,567-293.5C1258,220.86,1027,94.15,733.79,82.83Z"/><text class="cls-2" transform="matrix(0.79, -0.63, 0.68, 0.73, 520.4, 413.03)">Calzado</text><text class="cls-3" transform="matrix(0.92, -0.49, 0.54, 0.84, 669.05, 473.75)">Chuchin</text><path d="M503.63,342.89c1.39.63.27,3.42-.06,4.53a41,41,0,0,1-2.81,7.07,69.08,69.08,0,0,1-8.54,12.75A227,227,0,0,1,469.81,390,327.41,327.41,0,0,1,418,428.35q-7.81,4.68-15.89,8.94-4,2.13-8.14,4.16c-1.37.68-2.74,1.34-4.12,2l-2,.94-1,.46-.59.27c-.23.09-.26.08-.08,0l1,.58-.17-.18.58,1,0-.23v1.2l-.28.38-1,.58.19-.06h-1.19l.21.08a2.28,2.28,0,0,0,2.77-1.57,2.3,2.3,0,0,0-1.57-2.77,2.73,2.73,0,0,0-3.45,1.92,2.89,2.89,0,0,0,2.69,3.64c1.51.1,2.88-.75,4.2-1.37s2.89-1.37,4.33-2.07q8-3.9,15.83-8.23a336.52,336.52,0,0,0,30.42-19A332.56,332.56,0,0,0,469,396.72a252.91,252.91,0,0,0,25.14-24.83,74,74,0,0,0,11-16.24,44,44,0,0,0,3.25-9c.6-2.75.4-6.29-2.54-7.62a2.32,2.32,0,0,0-3.08.81,2.26,2.26,0,0,0,.81,3.07Z"/><path d="M386.5,444.36a440.58,440.58,0,0,0-62.07,39.87c-1,.79-1.69,2.5-.45,3.53,8.6,7.15,19.65,9.67,30.54,10.76,13,1.31,26.26,1.13,39.33.54,27.26-1.22,54.43-4.6,81.57-7.35l81.67-8.29c12.37-1.26,24.88-2.17,37.06-4.8,11.71-2.52,22.57-7.05,32-14.54a132.41,132.41,0,0,0,13-12.2c4.31-4.5,8.61-9,12.71-13.72,8.1-9.25,15.07-19.26,19.54-30.78a83.15,83.15,0,0,0,2.85-8.73c.76-2.8-3.58-4-4.34-1.2a87.5,87.5,0,0,1-16.37,31.74c-3.81,4.78-7.93,9.29-12.11,13.74-4,4.24-7.95,8.5-12.17,12.49A76.6,76.6,0,0,1,615.54,466a68.14,68.14,0,0,1-15.87,6.62c-11.42,3.27-23.3,4.35-35.07,5.55l-79.55,8.07c-26.38,2.68-52.76,5.81-79.22,7.64a373.28,373.28,0,0,1-39.72.89c-10.88-.41-22.52-1.07-32.44-6a33.42,33.42,0,0,1-6.51-4.18l-.46,3.53a442.38,442.38,0,0,1,62.07-39.87c2.56-1.35.29-5.24-2.27-3.88Z"/><path d="M728.52,169.46l-2,1.82a2.75,2.75,0,0,0-.78,1.21,2.85,2.85,0,0,0-.32,1.44,2.88,2.88,0,0,0,.32,1.45,2.78,2.78,0,0,0,.78,1.2l.76.59a3.67,3.67,0,0,0,1.89.51l1-.13a3.75,3.75,0,0,0,1.65-1l2-1.81a4.14,4.14,0,0,0,1.1-2.65,4.14,4.14,0,0,0-1.1-2.66l-.76-.58a3.67,3.67,0,0,0-1.89-.51l-1,.13a3.83,3.83,0,0,0-1.65,1Z"/><path d="M743.74,144.8A96,96,0,0,0,753.08,158L764,171.43l21.75,26.93,12.36,15.3a2.26,2.26,0,0,0,3.18,0l2.85-2.68c2.11-2-1.07-5.17-3.18-3.18l-2.85,2.68h3.18L758.06,157c-3.74-4.64-7.52-9.26-10.44-14.48-1.41-2.53-5.3-.26-3.88,2.27Z"/><path d="M812.13,209.65q12.29-20.7,26.22-40.35a2.28,2.28,0,0,0-.81-3.08,2.31,2.31,0,0,0-3.08.81q-13.92,19.64-26.22,40.35c-1.48,2.5,2.41,4.76,3.89,2.27Z"/><path d="M837.59,170.13H1057c2.9,0,2.9-4.5,0-4.5H837.59c-2.9,0-2.9,4.5,0,4.5Z"/><path d="M1054.09,169.09V440.48c0,2.9,4.5,2.9,4.5,0V169.09c0-2.9-4.5-2.9-4.5,0Z"/><path d="M1054.53,439.6l-18,23.9c-2.65,3.51-5.38,7-7.07,11.08-.77,1.86-1.89,4.59.18,6.05a2.57,2.57,0,0,0,3.64-3.44,2.24,2.24,0,0,0-2-1.11h-.14c-2.89.12-2.9,4.62,0,4.5h.14l-1.94-1.12.06.11-.3-1.13v.16l.3-1.13.15-.19,1.59-.66H1031l1.6.66-.22-.19.58,1c-.07.43-.05.39.07-.12l.12-.4c.12-.4.26-.8.41-1.19a19,19,0,0,1,1-2.14,38.81,38.81,0,0,1,2.75-4.31c2.2-3.08,4.53-6.06,6.81-9.08l14.32-19a2.27,2.27,0,0,0-.81-3.08,2.32,2.32,0,0,0-3.08.81Z"/><path d="M893.15,344.06V478.92c0,2.89,4.5,2.9,4.5,0v-2.68c0-2.9-4.5-2.9-4.5,0v2.68c0,2.89,4.5,2.9,4.5,0V344.06c0-2.9-4.5-2.9-4.5,0Z"/><path d="M898,483.6h132.69c2.9,0,2.9-4.5,0-4.5H898c-2.9,0-2.9,4.5,0,4.5Z"/><path d="M830.36,182.84h220.73c2.89,0,2.9-4.5,0-4.5H830.36c-2.89,0-2.9,4.5,0,4.5Z"/><path d="M732.37,172a162.32,162.32,0,0,0,12.82-30.14c.86-2.77-3.49-4-4.34-1.2a156.7,156.7,0,0,1-12.37,29.07c-1.39,2.54,2.49,4.81,3.89,2.27Z"/><text class="cls-4" transform="translate(534 597)">Desde 1987</text></svg>